<svg width="27" height="25" viewBox="0 0 27 25" fill="none" xmlns="http://www.w3.org/2000/svg">
<path d="M23.75 7.89072C23.75 7.09565 23.652 6.39382 23.4561 5.78525C23.2601 5.17668 23.0094 4.69325 22.7041 4.33498C22.3988 3.97671 22.0273 3.68469 21.5898 3.45893C21.1523 3.23317 20.724 3.08102 20.3047 3.0025C19.8854 2.92397 19.4388 2.88471 18.9648 2.88471C18.4909 2.88471 17.9805 3.00986 17.4336 3.26016C16.8867 3.51046 16.3831 3.82456 15.9229 4.20247C15.4626 4.58037 15.0684 4.93374 14.7402 5.26256C14.4121 5.59139 14.1387 5.89322 13.9199 6.16806C13.7559 6.38401 13.5326 6.49198 13.25 6.49198C12.9674 6.49198 12.7441 6.38401 12.5801 6.16806C12.3613 5.89322 12.0879 5.59139 11.7598 5.26256C11.4316 4.93374 11.0374 4.58037 10.5771 4.20247C10.1169 3.82456 9.61328 3.51046 9.06641 3.26016C8.51953 3.00986 8.00911 2.88471 7.53516 2.88471C7.0612 2.88471 6.61458 2.92397 6.19531 3.0025C5.77604 3.08102 5.34766 3.23317 4.91016 3.45893C4.47266 3.68469 4.10124 3.97671 3.7959 4.33498C3.49056 4.69325 3.23991 5.17668 3.04395 5.78525C2.84798 6.39382 2.75 7.09565 2.75 7.89072C2.75 9.53976 3.60221 11.282 5.30664 13.1176L13.25 21.3628L21.1797 13.1323C22.8932 11.287 23.75 9.53976 23.75 7.89072ZM25.5 7.89072C25.5 10.06 24.4564 12.2685 22.3691 14.5163L13.8516 23.3505C13.6875 23.5271 13.487 23.6155 13.25 23.6155C13.013 23.6155 12.8125 23.5271 12.6484 23.3505L4.11719 14.4869C4.02604 14.4083 3.90072 14.2807 3.74121 14.1041C3.58171 13.9274 3.32878 13.6059 2.98242 13.1397C2.63607 12.6734 2.32617 12.1949 2.05273 11.7041C1.7793 11.2133 1.53548 10.6195 1.32129 9.92257C1.1071 9.22565 1 8.54837 1 7.89072C1 5.73126 1.57878 4.04296 2.73633 2.82582C3.89388 1.60867 5.49349 1.00009 7.53516 1.00009C8.10026 1.00009 8.67676 1.10561 9.26465 1.31665C9.85254 1.52769 10.3994 1.81234 10.9053 2.17062C11.4111 2.52889 11.8464 2.86508 12.2109 3.17918C12.5755 3.49328 12.9219 3.82702 13.25 4.18038C13.5781 3.82702 13.9245 3.49328 14.2891 3.17918C14.6536 2.86508 15.0889 2.52889 15.5947 2.17062C16.1006 1.81234 16.6475 1.52769 17.2354 1.31665C17.8232 1.10561 18.3997 1.00009 18.9648 1.00009C21.0065 1.00009 22.6061 1.60867 23.7637 2.82582C24.9212 4.04296 25.5 5.73126 25.5 7.89072Z" stroke="white" stroke-width="2"/>
</svg>
