<svg width="21" height="24" viewBox="0 0 21 24" fill="none" xmlns="http://www.w3.org/2000/svg">
<path d="M10.6637 24L10.5557 20.4634L9.39483 20.4364C6.74916 20.2205 4.52193 19.1271 2.71316 17.1564C0.904387 15.1856 0 12.8684 0 10.2047C0 7.37908 1.00337 4.97188 3.01012 2.98313C5.01687 0.994375 7.44207 0 10.2857 0C11.6895 0 12.9944 0.256468 14.2002 0.769404C15.4061 1.28234 16.4544 1.99325 17.3453 2.90214C18.2362 3.81102 18.9381 4.88639 19.4511 6.12823C19.964 7.37008 20.2205 8.71991 20.2205 10.1777C20.2205 11.5636 19.982 12.9224 19.5051 14.2542C19.0281 15.5861 18.3667 16.8459 17.5208 18.0337C16.6749 19.2216 15.667 20.324 14.4972 21.3408C13.3273 22.3577 12.0495 23.2441 10.6637 24V24ZM12.9314 19.6265C14.4072 18.3847 15.5636 16.9179 16.4004 15.2261C17.2373 13.5343 17.6558 11.8515 17.6558 10.1777C17.6558 7.94601 16.9584 6.11923 15.5636 4.69741C14.1687 3.27559 12.4094 2.56468 10.2857 2.56468C8.12598 2.56468 6.29471 3.31159 4.7919 4.8054C3.28909 6.29921 2.53768 8.10799 2.53768 10.2317C2.53768 12.3735 3.28909 14.1957 4.7919 15.6985C6.29471 17.2013 8.10799 17.9528 10.2317 17.9528H12.9314V19.6265ZM10.3127 16.7109C10.6727 16.7109 10.9786 16.5849 11.2306 16.333C11.4826 16.081 11.6085 15.775 11.6085 15.4151C11.6085 15.0731 11.4826 14.7762 11.2306 14.5242C10.9786 14.2722 10.6727 14.1462 10.3127 14.1462C9.95275 14.1462 9.64679 14.2722 9.39483 14.5242C9.14286 14.7762 9.01687 15.0731 9.01687 15.4151C9.01687 15.775 9.14286 16.081 9.39483 16.333C9.64679 16.5849 9.95275 16.7109 10.3127 16.7109ZM9.31384 12.8504H11.1496C11.1496 12.4004 11.2351 12.0045 11.4061 11.6625C11.5771 11.3206 11.8695 10.9516 12.2835 10.5557C12.7874 10.0337 13.1429 9.5703 13.3498 9.16535C13.5568 8.7604 13.6603 8.29696 13.6603 7.77503C13.6603 6.87514 13.3813 6.14173 12.8234 5.5748C12.2655 5.00787 11.4736 4.72441 10.4477 4.72441C9.6198 4.72441 8.87739 4.96288 8.22047 5.43982C7.56355 5.91676 7.07312 6.55118 6.74916 7.34308L8.44994 8.04499C8.66592 7.55906 8.94038 7.1946 9.27334 6.95163C9.6063 6.70866 9.95275 6.58718 10.3127 6.58718C10.7807 6.58718 11.1451 6.69066 11.4061 6.89764C11.667 7.10461 11.7975 7.39708 11.7975 7.77503C11.7975 8.06299 11.6985 8.37795 11.5006 8.71991C11.3026 9.06187 10.9786 9.46682 10.5287 9.93476C10.0247 10.4567 9.69629 10.8976 9.54331 11.2576C9.39033 11.6175 9.31384 12.1485 9.31384 12.8504Z" fill="white"/>
</svg>
