<svg width="18" height="22" viewBox="0 0 18 22" fill="none" xmlns="http://www.w3.org/2000/svg">
<path d="M9.49266 21.3645L9.39653 18.2163L8.36315 18.1923C6.00801 18 4.02537 17.0267 2.41522 15.2724C0.805073 13.518 0 11.4553 0 9.08411C0 6.56876 0.893191 4.4259 2.67957 2.65554C4.46595 0.88518 6.62483 0 9.15621 0C10.4059 0 11.5674 0.228304 12.6409 0.684913C13.7143 1.14152 14.6475 1.77437 15.4406 2.58344C16.2336 3.39252 16.8585 4.3498 17.3151 5.45527C17.7717 6.56075 18 7.76235 18 9.06008C18 10.2937 17.7877 11.5033 17.3632 12.6889C16.9386 13.8745 16.3498 14.996 15.5968 16.0534C14.8438 17.1108 13.9466 18.0921 12.9052 18.9973C11.8638 19.9025 10.7263 20.6916 9.49266 21.3645V21.3645ZM11.5113 17.4713C12.8251 16.3658 13.8545 15.0601 14.5995 13.5541C15.3445 12.0481 15.717 10.5501 15.717 9.06008C15.717 7.07343 15.0961 5.44726 13.8545 4.18158C12.6128 2.91589 11.0467 2.28304 9.15621 2.28304C7.23364 2.28304 5.60347 2.94793 4.26569 4.2777C2.9279 5.60748 2.25901 7.21762 2.25901 9.10814C2.25901 11.0147 2.9279 12.6368 4.26569 13.9746C5.60347 15.3124 7.21762 15.9813 9.10814 15.9813H11.5113V17.4713ZM9.18024 14.8758C9.50067 14.8758 9.77303 14.7637 9.99733 14.5394C10.2216 14.3151 10.3338 14.0427 10.3338 13.7223C10.3338 13.4179 10.2216 13.1535 9.99733 12.9292C9.77303 12.7049 9.50067 12.5928 9.18024 12.5928C8.85981 12.5928 8.58745 12.7049 8.36315 12.9292C8.13885 13.1535 8.0267 13.4179 8.0267 13.7223C8.0267 14.0427 8.13885 14.3151 8.36315 14.5394C8.58745 14.7637 8.85981 14.8758 9.18024 14.8758ZM8.29105 11.4393H9.92523C9.92523 11.0387 10.0013 10.6862 10.1535 10.3818C10.3057 10.0774 10.5661 9.749 10.9346 9.39653C11.3832 8.93191 11.6996 8.51936 11.8838 8.15888C12.0681 7.7984 12.1602 7.38585 12.1602 6.92123C12.1602 6.12016 11.9119 5.46729 11.4152 4.96262C10.9186 4.45794 10.2136 4.20561 9.3004 4.20561C8.56342 4.20561 7.90254 4.41789 7.31776 4.84246C6.73298 5.26702 6.29639 5.83178 6.00801 6.53672L7.52203 7.16155C7.71429 6.72897 7.95861 6.40454 8.25501 6.18825C8.5514 5.97196 8.85981 5.86382 9.18024 5.86382C9.5968 5.86382 9.92123 5.95594 10.1535 6.14019C10.3858 6.32443 10.502 6.58478 10.502 6.92123C10.502 7.17757 10.4139 7.45794 10.2376 7.76235C10.0614 8.06676 9.77303 8.42724 9.3725 8.84379C8.9239 9.30841 8.63151 9.70093 8.49533 10.0214C8.35915 10.3418 8.29105 10.8144 8.29105 11.4393Z" fill="white"/>
</svg>
