<svg width="22" height="22" viewBox="0 0 22 22" fill="none" xmlns="http://www.w3.org/2000/svg">
<path d="M7.85 13.425C7.46667 13.425 7.14583 13.2958 6.8875 13.0375C6.62917 12.7792 6.5 12.4583 6.5 12.075C6.5 11.6917 6.62917 11.3708 6.8875 11.1125C7.14583 10.8542 7.46667 10.725 7.85 10.725C8.23333 10.725 8.55417 10.8542 8.8125 11.1125C9.07083 11.3708 9.2 11.6917 9.2 12.075C9.2 12.4583 9.07083 12.7792 8.8125 13.0375C8.55417 13.2958 8.23333 13.425 7.85 13.425ZM14.175 13.425C13.7917 13.425 13.4708 13.2958 13.2125 13.0375C12.9542 12.7792 12.825 12.4583 12.825 12.075C12.825 11.6917 12.9542 11.3708 13.2125 11.1125C13.4708 10.8542 13.7917 10.725 14.175 10.725C14.5583 10.725 14.8792 10.8542 15.1375 11.1125C15.3958 11.3708 15.525 11.6917 15.525 12.075C15.525 12.4583 15.3958 12.7792 15.1375 13.0375C14.8792 13.2958 14.5583 13.425 14.175 13.425ZM11 19.5C13.3667 19.5 15.375 18.675 17.025 17.025C18.675 15.375 19.5 13.3667 19.5 11C19.5 10.5667 19.4667 10.1417 19.4 9.725C19.3333 9.30833 19.25 8.925 19.15 8.575C18.8167 8.65833 18.4542 8.71667 18.0625 8.75C17.6708 8.78333 17.2667 8.8 16.85 8.8C15.2333 8.8 13.7042 8.46667 12.2625 7.8C10.8208 7.13333 9.59167 6.18333 8.575 4.95C8.00833 6.3 7.19583 7.47917 6.1375 8.4875C5.07917 9.49583 3.86667 10.275 2.5 10.825V11C2.5 13.3667 3.325 15.375 4.975 17.025C6.625 18.675 8.63333 19.5 11 19.5ZM11 21C9.61667 21 8.31667 20.7375 7.1 20.2125C5.88333 19.6875 4.825 18.975 3.925 18.075C3.025 17.175 2.3125 16.1167 1.7875 14.9C1.2625 13.6833 1 12.3833 1 11C1 9.61667 1.2625 8.31667 1.7875 7.1C2.3125 5.88333 3.025 4.825 3.925 3.925C4.825 3.025 5.88333 2.3125 7.1 1.7875C8.31667 1.2625 9.61667 1 11 1C12.3833 1 13.6833 1.2625 14.9 1.7875C16.1167 2.3125 17.175 3.025 18.075 3.925C18.975 4.825 19.6875 5.88333 20.2125 7.1C20.7375 8.31667 21 9.61667 21 11C21 12.3833 20.7375 13.6833 20.2125 14.9C19.6875 16.1167 18.975 17.175 18.075 18.075C17.175 18.975 16.1167 19.6875 14.9 20.2125C13.6833 20.7375 12.3833 21 11 21Z" fill="white" stroke="white" stroke-width="0.5"/>
</svg>
