<svg width="24" height="19" viewBox="0 0 24 19" fill="none" xmlns="http://www.w3.org/2000/svg">
<path d="M2.54583 18.7146C1.84167 18.7146 1.24132 18.4663 0.744792 17.9698C0.248264 17.4733 0 16.8729 0 16.1687V2.57292C0 1.86875 0.248264 1.26389 0.744792 0.758334C1.24132 0.252778 1.84167 0 2.54583 0H20.475C21.1792 0 21.784 0.252778 22.2896 0.758334C22.7951 1.26389 23.0479 1.86875 23.0479 2.57292V16.1687C23.0479 16.8729 22.7951 17.4733 22.2896 17.9698C21.784 18.4663 21.1792 18.7146 20.475 18.7146H2.54583ZM11.5104 10.725L2.54583 4.68542V16.1687H20.475V4.68542L11.5104 10.725ZM11.5104 8.47708L20.3667 2.57292H2.68125L11.5104 8.47708ZM2.54583 4.68542V2.57292V16.1687V4.68542Z" fill="white"/>
</svg>
