<svg width="25" height="23" viewBox="0 0 25 23" fill="none" xmlns="http://www.w3.org/2000/svg">
<path d="M12.5448 4.88304L12.5447 4.88297L12.5513 4.87465C12.7838 4.58247 13.0699 4.26734 13.4067 3.92976C13.7484 3.58737 14.1547 3.2235 14.6239 2.83832C15.1159 2.43439 15.6541 2.09878 16.2375 1.83175C16.8299 1.5606 17.4076 1.41356 17.9648 1.41356C18.4647 1.41356 18.9406 1.45496 19.3914 1.5394C19.862 1.62754 20.3338 1.79663 20.8059 2.04023C21.2953 2.29276 21.7158 2.62237 22.0627 3.02937C22.42 3.44859 22.6959 3.99302 22.9045 4.64084C23.1187 5.30583 23.2212 6.05805 23.2212 6.89072C23.2212 8.70804 22.278 10.565 20.5249 12.4529L20.525 12.453L20.519 12.4592L12.5893 20.6897L12.25 21.0419L11.9107 20.6897L3.96733 12.4445L3.96727 12.4445L3.96138 12.4382C2.21688 10.5595 1.27885 8.70751 1.27885 6.89072C1.27885 6.05805 1.38134 5.30583 1.59547 4.64084C1.80407 3.99303 2.08003 3.44859 2.43731 3.02937C2.78417 2.62237 3.20473 2.29276 3.6941 2.04023C4.16618 1.79663 4.63795 1.62754 5.10858 1.5394C5.5594 1.45496 6.03526 1.41356 6.53516 1.41356C7.09241 1.41356 7.67008 1.5606 8.26249 1.83175C8.84592 2.09878 9.38414 2.43439 9.87612 2.83832C10.3453 3.2235 10.7516 3.58737 11.0933 3.92976C11.4301 4.26734 11.7162 4.58247 11.9487 4.87465L11.9488 4.87458L11.9552 4.88304C12.0259 4.9761 12.1075 5.02083 12.25 5.02083C12.3925 5.02083 12.4741 4.9761 12.5448 4.88304ZM12.5063 22.0299L12.5062 22.0298L12.5124 22.0234L21.0269 13.1925C23.0647 10.9969 24.0288 8.89861 24.0288 6.89072C24.0288 4.81628 23.4747 3.25715 22.4223 2.15051C21.3723 1.04653 19.9073 0.471247 17.9648 0.471247C17.4594 0.471247 16.9367 0.56547 16.3945 0.760098C15.8465 0.956814 15.3378 1.22171 14.867 1.55511C14.3701 1.90707 13.9472 2.23406 13.5966 2.53613C13.2453 2.8388 12.9115 3.16039 12.5953 3.50098L12.25 3.8728L11.9047 3.50098C11.5885 3.1604 11.2547 2.8388 10.9034 2.53613C10.5528 2.23406 10.1299 1.90707 9.63296 1.55511C9.16223 1.22171 8.65346 0.956814 8.10546 0.760098C7.56329 0.56547 7.04059 0.471247 6.53516 0.471247C4.59266 0.471247 3.12766 1.04653 2.07774 2.15051C1.02528 3.25715 0.471154 4.81628 0.471154 6.89072C0.471154 7.49667 0.569761 8.12726 0.771652 8.78415C0.978841 9.45828 1.21089 10.0199 1.46432 10.4748C1.72744 10.9471 2.02611 11.4084 2.36064 11.8587C2.70712 12.3251 2.94813 12.6302 3.09093 12.7883C3.24737 12.9616 3.35669 13.0713 3.42471 13.1299L3.44139 13.1443L3.45665 13.1601L11.9879 22.0237L11.988 22.0237L11.9937 22.0299C12.0704 22.1124 12.1466 22.1443 12.25 22.1443C12.3534 22.1443 12.4296 22.1124 12.5063 22.0299Z" fill="black" stroke="#A0A0A0" stroke-width="0.942308"/>
</svg>
