<svg width="50" height="50" viewBox="0 0 50 50" fill="none" xmlns="http://www.w3.org/2000/svg">
<path d="M25 50C38.8071 50 50 38.8071 50 25C50 11.1929 38.8071 0 25 0C11.1929 0 0 11.1929 0 25C0 38.8071 11.1929 50 25 50Z" fill="url(#paint0_linear_1122_72)"/>
<path d="M22.8977 17.3977C22.6781 17.1781 22.3219 17.1781 22.1023 17.3977L20.7977 18.7023C20.5781 18.9219 20.5781 19.2781 20.7977 19.4977L23.3398 22.0398C23.6941 22.3941 23.4431 23 22.942 23H9.5625C9.25184 23 9 23.2518 9 23.5625V25.4375C9 25.7482 9.25184 26 9.5625 26H22.942C23.4431 26 23.6941 26.6059 23.3398 26.9602L20.7977 29.5023C20.5781 29.7219 20.5781 30.0781 20.7977 30.2977L22.1023 31.6023C22.3219 31.8219 22.6781 31.8219 22.8977 31.6023L29.6023 24.8977C29.8219 24.6781 29.8219 24.3219 29.6023 24.1023L22.8977 17.3977ZM36 34.4375C36 34.7482 35.7482 35 35.4375 35H24.5625C24.2518 35 24 35.2518 24 35.5625V37.4375C24 37.7482 24.2518 38 24.5625 38H36C37.65 38 39 36.65 39 35V14C39 12.35 37.65 11 36 11H24.5625C24.2518 11 24 11.2518 24 11.5625V13.4375C24 13.7482 24.2518 14 24.5625 14H35.4375C35.7482 14 36 14.2518 36 14.5625V34.4375Z" fill="white"/>
<defs>
<linearGradient id="paint0_linear_1122_72" x1="9.24994" y1="5.49994" x2="37.7499" y2="43.7499" gradientUnits="userSpaceOnUse">
<stop stop-color="#B66DFF"/>
<stop offset="1" stop-color="#280292"/>
</linearGradient>
</defs>
</svg>
