<svg width="30" height="27" viewBox="0 0 30 27" fill="none" xmlns="http://www.w3.org/2000/svg">
<path d="M13.8977 6.3977C13.6781 6.1781 13.3219 6.1781 13.1023 6.3977L11.7977 7.7023C11.5781 7.9219 11.5781 8.2781 11.7977 8.4977L14.3398 11.0398C14.6941 11.3941 14.4431 12 13.942 12H0.5625C0.25184 12 0 12.2518 0 12.5625V14.4375C0 14.7482 0.25184 15 0.5625 15H13.942C14.4431 15 14.6941 15.6059 14.3398 15.9602L11.7977 18.5023C11.5781 18.7219 11.5781 19.0781 11.7977 19.2977L13.1023 20.6023C13.3219 20.8219 13.6781 20.8219 13.8977 20.6023L20.6023 13.8977C20.8219 13.6781 20.8219 13.3219 20.6023 13.1023L13.8977 6.3977ZM27 23.4375C27 23.7482 26.7482 24 26.4375 24H15.5625C15.2518 24 15 24.2518 15 24.5625V26.4375C15 26.7482 15.2518 27 15.5625 27H27C28.65 27 30 25.65 30 24V3C30 1.35 28.65 0 27 0H15.5625C15.2518 0 15 0.2518 15 0.5625V2.4375C15 2.7482 15.2518 3 15.5625 3H26.4375C26.7482 3 27 3.2518 27 3.5625V23.4375Z" fill="white"/>
</svg>
