<svg width="895" height="223" viewBox="0 0 895 223" fill="none" xmlns="http://www.w3.org/2000/svg">
<path d="M138.259 51.8468V174H113.105V100.165L81.9784 134.187H74.7396L43.2513 100.165V174H18.0968V51.8468H26.6022L78.359 105.775L129.754 51.8468H138.259ZM497.61 51.8468V174H472.456V100.165L441.329 134.187H434.091L402.602 100.165V174H377.448V51.8468H385.953L437.71 105.775L489.105 51.8468H497.61ZM614.378 101.975V122.424H560.812V151.741H621.436V174H535.657V52.7517H621.436V74.4678H560.812V101.975H614.378ZM761.91 52.7517V174.905H752.862L681.018 100.889V174H655.863V51.8468H664.911L736.756 126.948V52.7517H761.91ZM889.355 52.7517V75.3726H850.628V173.457H825.654V75.3726H786.927V52.7517H889.355Z" fill="white"/>
<path d="M277.5 75.5688L328.299 163.538" stroke="white" stroke-width="12" stroke-linecap="round" stroke-linejoin="round"/>
<path d="M236.609 75.5688H338.207" stroke="white" stroke-width="12" stroke-linecap="round" stroke-linejoin="round"/>
<path d="M216.02 109.612L266.819 24.6519" stroke="white" stroke-width="12" stroke-linecap="round" stroke-linejoin="round"/>
<path d="M237 143L186 62" stroke="white" stroke-width="12" stroke-linecap="round" stroke-linejoin="round"/>
<path d="M277.5 146.369H177.789" stroke="white" stroke-width="12" stroke-linecap="round" stroke-linejoin="round"/>
<path d="M297.942 110.969L247.143 198.938" stroke="white" stroke-width="12" stroke-linecap="round" stroke-linejoin="round"/>
<path d="M258.5 200C307.377 200 347 160.377 347 111.5C347 62.6228 307.377 23 258.5 23C209.623 23 170 62.6228 170 111.5C170 160.377 209.623 200 258.5 200Z" stroke="white" stroke-width="12" stroke-linecap="round" stroke-linejoin="round"/>
</svg>
