<svg width="18" height="21" viewBox="0 0 18 21" fill="none" xmlns="http://www.w3.org/2000/svg">
<path d="M0 17.5135V15.2375H2.22812V8.57708C2.22812 7.09167 2.65538 5.75 3.5099 4.55208C4.36441 3.35417 5.51042 2.59549 6.94792 2.27604V1.70104C6.94792 1.2059 7.11962 0.798611 7.46302 0.479167C7.80642 0.159722 8.21771 0 8.69687 0C9.17604 0 9.58733 0.159722 9.93073 0.479167C10.2741 0.798611 10.4458 1.2059 10.4458 1.70104V2.27604C11.8993 2.59549 13.0573 3.35017 13.9198 4.5401C14.7823 5.73003 15.2135 7.07569 15.2135 8.57708V15.2375H17.4177V17.5135H0ZM8.72083 20.4604C8.14583 20.4604 7.6467 20.2528 7.22344 19.8375C6.80017 19.4222 6.58854 18.9271 6.58854 18.3521H10.8292C10.8292 18.9431 10.6215 19.4422 10.2062 19.8495C9.79097 20.2568 9.29583 20.4604 8.72083 20.4604ZM4.48021 15.2375H12.9375V8.57708C12.9375 7.39514 12.5302 6.38889 11.7156 5.55833C10.901 4.72778 9.90278 4.3125 8.72083 4.3125C7.53889 4.3125 6.53663 4.72778 5.71406 5.55833C4.89149 6.38889 4.48021 7.39514 4.48021 8.57708V15.2375Z" fill="white"/>
</svg>
