<svg width="29" height="16" viewBox="0 0 29 16" fill="none" xmlns="http://www.w3.org/2000/svg">
<path d="M7.80104 10.1443C7.16826 10.1443 6.61952 9.91197 6.15481 9.44727C5.69011 8.98257 5.45776 8.43383 5.45776 7.80104C5.45776 7.16826 5.69011 6.61952 6.15481 6.15481C6.61952 5.69011 7.16826 5.45776 7.80104 5.45776C8.43383 5.45776 8.98257 5.69011 9.44727 6.15481C9.91197 6.61952 10.1443 7.16826 10.1443 7.80104C10.1443 8.43383 9.91197 8.98257 9.44727 9.44727C8.98257 9.91197 8.43383 10.1443 7.80104 10.1443ZM7.80104 15.6021C5.64562 15.6021 3.80659 14.8408 2.28396 13.3181C0.761318 11.7955 0 9.95646 0 7.80104C0 5.64562 0.761318 3.80659 2.28396 2.28395C3.80659 0.761318 5.64562 0 7.80104 0C9.383 0 10.7672 0.375715 11.9537 1.12715C13.1402 1.87858 14.0399 2.97606 14.6529 4.4196H25.0938L28.8016 8.09766L23.3735 13.1105L20.7336 11.1528L18.153 13.0215L15.8097 11.1825H14.6529C14.1585 12.4283 13.3231 13.4763 12.1465 14.3266C10.9699 15.1769 9.52142 15.6021 7.80104 15.6021ZM7.80104 13.1402C9.00729 13.1402 10.0998 12.7348 11.0787 11.924C12.0575 11.1133 12.6656 10.0553 12.9029 8.75022H16.6699L18.153 9.99601L20.7632 8.12732L23.1955 9.90703L25.3608 8.12732L24.115 6.85187H12.9029C12.7249 5.6654 12.1465 4.63712 11.1677 3.76704C10.1888 2.89697 9.06661 2.46193 7.80104 2.46193C6.31795 2.46193 5.05733 2.98101 4.01917 4.01917C2.98101 5.05733 2.46193 6.31795 2.46193 7.80104C2.46193 9.28413 2.98101 10.5448 4.01917 11.5829C5.05733 12.6211 6.31795 13.1402 7.80104 13.1402Z" fill="white"/>
</svg>
