<svg width="14" height="19" viewBox="0 0 14 19" fill="none" xmlns="http://www.w3.org/2000/svg">
<path d="M6.64997 0C2.97349 0 0 2.97349 0 6.64997C0 11.6375 6.64997 18.9999 6.64997 18.9999C6.64997 18.9999 13.2999 11.6375 13.2999 6.64997C13.2999 2.97349 10.3265 0 6.64997 0ZM1.89999 6.64997C1.89999 4.02798 4.02798 1.89999 6.64997 1.89999C9.27196 1.89999 11.4 4.02798 11.4 6.64997C11.4 9.38596 8.66397 13.4804 6.64997 16.0359C4.67398 13.4994 1.89999 9.35746 1.89999 6.64997Z" fill="white"/>
<path d="M6.65014 9.02488C7.96181 9.02488 9.02513 7.96156 9.02513 6.64989C9.02513 5.33822 7.96181 4.2749 6.65014 4.2749C5.33847 4.2749 4.27515 5.33822 4.27515 6.64989C4.27515 7.96156 5.33847 9.02488 6.65014 9.02488Z" fill="white"/>
</svg>
