<svg width="22" height="22" viewBox="0 0 22 22" fill="none" xmlns="http://www.w3.org/2000/svg">
<path d="M6.43716 4.09839C5.14329 4.09839 4.09839 5.14737 4.09839 6.43716C4.09839 7.73104 5.14737 8.77594 6.43716 8.77594C7.73104 8.77594 8.77594 7.72696 8.77594 6.43716C8.78002 5.14329 7.73104 4.09839 6.43716 4.09839ZM6.43716 7.94737C5.60451 7.94737 4.92696 7.26982 4.92696 6.43716C4.92696 5.60451 5.60451 4.92696 6.43716 4.92696C7.26982 4.92696 7.94737 5.60451 7.94737 6.43716C7.94737 7.26982 7.2739 7.94737 6.43716 7.94737Z" fill="white" stroke="white"/>
<path d="M10.5306 1.76735C10.1061 1.29796 9.5102 1.0449 8.86939 1.0449L4.4898 1C3.5551 1 2.66122 1.33878 2.02041 2.02041C1.33878 2.66122 1 3.5551 1 4.4898L1.04082 8.87347C1.08163 9.46939 1.29796 10.0653 1.76327 10.5347L11.7849 20.5524C12.0322 20.7996 12.4331 20.7996 12.6804 20.5523L20.5521 12.6805C20.7995 12.4332 20.7994 12.0322 20.552 11.7849L10.5306 1.76735ZM12.1918 19.8082L2.31837 9.93469C2.02041 9.63673 1.84898 9.25306 1.84898 8.82857L1.80816 4.4898C1.80816 3.80816 2.10612 3.12653 2.57551 2.61633C3.08571 2.10612 3.76735 1.80816 4.4898 1.80816L8.82857 1.84898C9.25306 1.84898 9.63673 2.02041 9.93469 2.31837L19.8082 12.1918L12.1918 19.8082Z" fill="white" stroke="white"/>
</svg>
