<svg width="21" height="19" viewBox="0 0 21 19" fill="none" xmlns="http://www.w3.org/2000/svg">
<path d="M12.625 2.08333L14.5313 4.16667H18.75V16.6667H2.08333V4.16667H6.30208L8.20833 2.08333H12.625M13.5417 0H7.29167L5.38542 2.08333H2.08333C0.9375 2.08333 0 3.02083 0 4.16667V16.6667C0 17.8125 0.9375 18.75 2.08333 18.75H18.75C19.8958 18.75 20.8333 17.8125 20.8333 16.6667V4.16667C20.8333 3.02083 19.8958 2.08333 18.75 2.08333H15.4479L13.5417 0ZM10.4167 7.29167C12.1354 7.29167 13.5417 8.69792 13.5417 10.4167C13.5417 12.1354 12.1354 13.5417 10.4167 13.5417C8.69792 13.5417 7.29167 12.1354 7.29167 10.4167C7.29167 8.69792 8.69792 7.29167 10.4167 7.29167ZM10.4167 5.20833C7.54167 5.20833 5.20833 7.54167 5.20833 10.4167C5.20833 13.2917 7.54167 15.625 10.4167 15.625C13.2917 15.625 15.625 13.2917 15.625 10.4167C15.625 7.54167 13.2917 5.20833 10.4167 5.20833Z" fill="white"/>
</svg>
