<svg width="21" height="22" viewBox="0 0 21 22" fill="none" xmlns="http://www.w3.org/2000/svg">
<path d="M10.2376 1H9.79758C9.26715 1 8.75844 1.21071 8.38337 1.58579C8.00829 1.96086 7.79758 2.46957 7.79758 3V3.18C7.79722 3.53073 7.70464 3.87519 7.52912 4.17884C7.3536 4.48248 7.10132 4.73464 6.79758 4.91L6.36758 5.16C6.06354 5.33554 5.71865 5.42795 5.36758 5.42795C5.01651 5.42795 4.67162 5.33554 4.36758 5.16L4.21758 5.08C3.75864 4.81526 3.21342 4.74344 2.70158 4.88031C2.18975 5.01717 1.75313 5.35154 1.48758 5.81L1.26758 6.19C1.00284 6.64893 0.931024 7.19416 1.06789 7.706C1.20475 8.21783 1.53912 8.65445 1.99758 8.92L2.14758 9.02C2.44986 9.19451 2.7012 9.44509 2.87663 9.74683C3.05206 10.0486 3.14547 10.391 3.14758 10.74V11.25C3.14898 11.6024 3.05723 11.949 2.88162 12.2545C2.70602 12.5601 2.45279 12.8138 2.14758 12.99L1.99758 13.08C1.53912 13.3456 1.20475 13.7822 1.06789 14.294C0.931024 14.8058 1.00284 15.3511 1.26758 15.81L1.48758 16.19C1.75313 16.6485 2.18975 16.9828 2.70158 17.1197C3.21342 17.2566 3.75864 17.1847 4.21758 16.92L4.36758 16.84C4.67162 16.6645 5.01651 16.5721 5.36758 16.5721C5.71865 16.5721 6.06354 16.6645 6.36758 16.84L6.79758 17.09C7.10132 17.2654 7.3536 17.5175 7.52912 17.8212C7.70464 18.1248 7.79722 18.4693 7.79758 18.82V19C7.79758 19.5304 8.00829 20.0391 8.38337 20.4142C8.75844 20.7893 9.26715 21 9.79758 21H10.2376C10.768 21 11.2767 20.7893 11.6518 20.4142C12.0269 20.0391 12.2376 19.5304 12.2376 19V18.82C12.2379 18.4693 12.3305 18.1248 12.506 17.8212C12.6816 17.5175 12.9338 17.2654 13.2376 17.09L13.6676 16.84C13.9716 16.6645 14.3165 16.5721 14.6676 16.5721C15.0187 16.5721 15.3635 16.6645 15.6676 16.84L15.8176 16.92C16.2765 17.1847 16.8217 17.2566 17.3336 17.1197C17.8454 16.9828 18.282 16.6485 18.5476 16.19L18.7676 15.8C19.0323 15.3411 19.1041 14.7958 18.9673 14.284C18.8304 13.7722 18.496 13.3356 18.0376 13.07L17.8876 12.99C17.5824 12.8138 17.3291 12.5601 17.1535 12.2545C16.9779 11.949 16.8862 11.6024 16.8876 11.25V10.75C16.8862 10.3976 16.9779 10.051 17.1535 9.74549C17.3291 9.43994 17.5824 9.18621 17.8876 9.01L18.0376 8.92C18.496 8.65445 18.8304 8.21783 18.9673 7.706C19.1041 7.19416 19.0323 6.64893 18.7676 6.19L18.5476 5.81C18.282 5.35154 17.8454 5.01717 17.3336 4.88031C16.8217 4.74344 16.2765 4.81526 15.8176 5.08L15.6676 5.16C15.3635 5.33554 15.0187 5.42795 14.6676 5.42795C14.3165 5.42795 13.9716 5.33554 13.6676 5.16L13.2376 4.91C12.9338 4.73464 12.6816 4.48248 12.506 4.17884C12.3305 3.87519 12.2379 3.53073 12.2376 3.18V3C12.2376 2.46957 12.0269 1.96086 11.6518 1.58579C11.2767 1.21071 10.768 1 10.2376 1V1Z" stroke="white" stroke-width="2" stroke-linecap="round" stroke-linejoin="round"/>
<path d="M10.0176 14C11.6744 14 13.0176 12.6569 13.0176 11C13.0176 9.34315 11.6744 8 10.0176 8C8.36072 8 7.01758 9.34315 7.01758 11C7.01758 12.6569 8.36072 14 10.0176 14Z" stroke="white" stroke-width="2" stroke-linecap="round" stroke-linejoin="round"/>
</svg>
