<svg width="22" height="24" viewBox="0 0 22 24" fill="none" xmlns="http://www.w3.org/2000/svg">
<path d="M4.15625 23.5C3.63542 23.5 3.19271 23.3177 2.82813 22.9531C2.46354 22.5885 2.28125 22.1458 2.28125 21.625V4.21654C2.28125 3.9934 2.10036 3.8125 1.87721 3.8125H1.40404C1.1809 3.8125 1 3.6316 1 3.40846V2.34154C1 2.1184 1.1809 1.9375 1.40404 1.9375H6.47096C6.6941 1.9375 6.875 1.7566 6.875 1.53346V1.40404C6.875 1.1809 7.05589 1 7.27904 1H14.721C14.9441 1 15.125 1.1809 15.125 1.40404V1.53346C15.125 1.7566 15.3059 1.9375 15.529 1.9375H20.596C20.8191 1.9375 21 2.1184 21 2.34154V3.40846C21 3.6316 20.8191 3.8125 20.596 3.8125H20.1228C19.8996 3.8125 19.7188 3.9934 19.7188 4.21654V21.625C19.7188 22.125 19.5312 22.5625 19.1562 22.9375C18.7812 23.3125 18.3438 23.5 17.8438 23.5H4.15625ZM17.8438 4.21654C17.8438 3.9934 17.6629 3.8125 17.4397 3.8125H4.56029C4.33714 3.8125 4.15625 3.9934 4.15625 4.21654V21.221C4.15625 21.4441 4.33715 21.625 4.56029 21.625H17.4397C17.6629 21.625 17.8438 21.4441 17.8438 21.221V4.21654ZM7.46875 18.5335C7.46875 18.7566 7.64965 18.9375 7.87279 18.9375H8.93971C9.16286 18.9375 9.34375 18.7566 9.34375 18.5335V6.87279C9.34375 6.64965 9.16286 6.46875 8.93971 6.46875H7.87279C7.64965 6.46875 7.46875 6.64965 7.46875 6.87279V18.5335ZM12.6562 18.5335C12.6562 18.7566 12.8371 18.9375 13.0603 18.9375H14.1272C14.3504 18.9375 14.5312 18.7566 14.5312 18.5335V6.87279C14.5312 6.64965 14.3504 6.46875 14.1272 6.46875H13.0603C12.8371 6.46875 12.6562 6.64965 12.6562 6.87279V18.5335Z" fill="white" stroke="white" stroke-width="0.5"/>
</svg>
