<svg width="22" height="22" viewBox="0 0 22 22" fill="none" xmlns="http://www.w3.org/2000/svg">
<path d="M11 21C9.61667 21 8.31667 20.7375 7.1 20.2125C5.88333 19.6875 4.825 18.975 3.925 18.075C3.025 17.175 2.3125 16.1167 1.7875 14.9C1.2625 13.6833 1 12.3833 1 11C1 9.61667 1.2625 8.31667 1.7875 7.1C2.3125 5.88333 3.025 4.825 3.925 3.925C4.825 3.025 5.88333 2.3125 7.1 1.7875C8.31667 1.2625 9.61667 1 11 1C12.3833 1 13.6833 1.2625 14.9 1.7875C16.1167 2.3125 17.175 3.025 18.075 3.925C18.975 4.825 19.6875 5.88333 20.2125 7.1C20.7375 8.31667 21 9.61667 21 11V12.325C21 13.2583 20.6708 14.0458 20.0125 14.6875C19.3542 15.3292 18.55 15.65 17.6 15.65C17 15.65 16.4333 15.5042 15.9 15.2125C15.3667 14.9208 14.9583 14.5083 14.675 13.975C14.2417 14.5417 13.7 14.9625 13.05 15.2375C12.4 15.5125 11.7167 15.65 11 15.65C9.7 15.65 8.59583 15.2 7.6875 14.3C6.77917 13.4 6.325 12.3 6.325 11C6.325 9.7 6.77917 8.59167 7.6875 7.675C8.59583 6.75833 9.7 6.3 11 6.3C12.3 6.3 13.4042 6.75833 14.3125 7.675C15.2208 8.59167 15.675 9.7 15.675 11V12.325C15.675 12.8417 15.8625 13.275 16.2375 13.625C16.6125 13.975 17.0667 14.15 17.6 14.15C18.1167 14.15 18.5625 13.975 18.9375 13.625C19.3125 13.275 19.5 12.8417 19.5 12.325V11C19.5 8.63333 18.675 6.625 17.025 4.975C15.375 3.325 13.3667 2.5 11 2.5C8.63333 2.5 6.625 3.325 4.975 4.975C3.325 6.625 2.5 8.63333 2.5 11C2.5 13.3667 3.325 15.375 4.975 17.025C6.625 18.675 8.63333 19.5 11 19.5H16.35V21H11ZM11 14.15C11.8833 14.15 12.6333 13.8458 13.25 13.2375C13.8667 12.6292 14.175 11.8833 14.175 11C14.175 10.1 13.8667 9.34167 13.25 8.725C12.6333 8.10833 11.8833 7.8 11 7.8C10.1167 7.8 9.36667 8.10833 8.75 8.725C8.13333 9.34167 7.825 10.1 7.825 11C7.825 11.8833 8.13333 12.6292 8.75 13.2375C9.36667 13.8458 10.1167 14.15 11 14.15Z" fill="white" stroke="white" stroke-width="0.5"/>
</svg>
