<svg width="25" height="25" viewBox="0 0 25 25" fill="none" xmlns="http://www.w3.org/2000/svg">
<path d="M12.5 24C10.89 24 9.38542 23.6981 7.98625 23.0944C6.58708 22.4906 5.37 21.6713 4.335 20.6363C3.3 19.6013 2.48542 18.3794 1.89125 16.9706C1.29708 15.5619 1 14.0525 1 12.4425C1 10.8325 1.29708 9.33271 1.89125 7.94313C2.48542 6.55354 3.3 5.34125 4.335 4.30625C5.37 3.27125 6.58708 2.46146 7.98625 1.87688C9.38542 1.29229 10.89 1 12.5 1C14.11 1 15.6146 1.29229 17.0137 1.87688C18.4129 2.46146 19.63 3.27125 20.665 4.30625C21.7 5.34125 22.5146 6.55354 23.1087 7.94313C23.7029 9.33271 24 10.8325 24 12.4425C24 14.0525 23.7029 15.5619 23.1087 16.9706C22.5146 18.3794 21.7 19.6013 20.665 20.6363C19.63 21.6713 18.4129 22.4906 17.0137 23.0944C15.6146 23.6981 14.11 24 12.5 24ZM12.5 22.3325C13.1708 21.6425 13.7315 20.8519 14.1819 19.9606C14.6323 19.0694 15.0012 18.0104 15.2887 16.7838H9.74C10.0083 17.9338 10.3677 18.9687 10.8181 19.8887C11.2685 20.8087 11.8292 21.6233 12.5 22.3325ZM10.0562 21.9875C9.57708 21.2592 9.165 20.4733 8.82 19.63C8.475 18.7867 8.1875 17.8379 7.9575 16.7838H3.645C4.37333 18.1446 5.21667 19.2131 6.175 19.9894C7.13333 20.7656 8.42708 21.4317 10.0562 21.9875ZM14.9725 21.9588C16.3525 21.5179 17.5935 20.8567 18.6956 19.975C19.7977 19.0933 20.6842 18.0296 21.355 16.7838H17.0713C16.8221 17.8188 16.5298 18.7579 16.1944 19.6012C15.859 20.4446 15.4517 21.2304 14.9725 21.9588ZM3.07 15.0588H7.64125C7.58375 14.5413 7.55021 14.0765 7.54062 13.6644C7.53104 13.2523 7.52625 12.845 7.52625 12.4425C7.52625 11.9633 7.53583 11.5369 7.555 11.1631C7.57417 10.7894 7.6125 10.3725 7.67 9.9125H3.07C2.93583 10.3725 2.84479 10.7846 2.79687 11.1487C2.74896 11.5129 2.725 11.9442 2.725 12.4425C2.725 12.9408 2.74896 13.3865 2.79687 13.7794C2.84479 14.1723 2.93583 14.5988 3.07 15.0588ZM9.42375 15.0588H15.605C15.6817 14.4646 15.7296 13.9806 15.7487 13.6069C15.7679 13.2331 15.7775 12.845 15.7775 12.4425C15.7775 12.0592 15.7679 11.6902 15.7487 11.3356C15.7296 10.981 15.6817 10.5067 15.605 9.9125H9.42375C9.34708 10.5067 9.29917 10.981 9.28 11.3356C9.26083 11.6902 9.25125 12.0592 9.25125 12.4425C9.25125 12.845 9.26083 13.2331 9.28 13.6069C9.29917 13.9806 9.34708 14.4646 9.42375 15.0588ZM17.33 15.0588H21.93C22.0642 14.5988 22.1552 14.1723 22.2031 13.7794C22.251 13.3865 22.275 12.9408 22.275 12.4425C22.275 11.9442 22.251 11.5129 22.2031 11.1487C22.1552 10.7846 22.0642 10.3725 21.93 9.9125H17.3588C17.4163 10.5833 17.4546 11.096 17.4738 11.4506C17.4929 11.8052 17.5025 12.1358 17.5025 12.4425C17.5025 12.8642 17.4881 13.2619 17.4594 13.6356C17.4306 14.0094 17.3875 14.4838 17.33 15.0588ZM17.0425 8.1875H21.355C20.7225 6.865 19.8552 5.76292 18.7531 4.88125C17.651 3.99958 16.3812 3.37667 14.9437 3.0125C15.4229 3.72167 15.8302 4.48833 16.1656 5.3125C16.501 6.13667 16.7933 7.095 17.0425 8.1875ZM9.74 8.1875H15.3175C15.1067 7.17167 14.7521 6.18937 14.2537 5.24062C13.7554 4.29187 13.1708 3.45333 12.5 2.725C11.8867 3.2425 11.3692 3.92292 10.9475 4.76625C10.5258 5.60958 10.1233 6.75 9.74 8.1875ZM3.645 8.1875H7.98625C8.19708 7.1525 8.46542 6.22771 8.79125 5.41313C9.11708 4.59854 9.52917 3.80792 10.0275 3.04125C8.59 3.40542 7.33458 4.01875 6.26125 4.88125C5.18792 5.74375 4.31583 6.84583 3.645 8.1875Z" fill="white" stroke="white" stroke-width="0.3"/>
</svg>
