<svg width="1140" height="167" viewBox="0 0 1140 167" fill="none" xmlns="http://www.w3.org/2000/svg">
<path d="M221.16 10.56L180.9 165H135.36L110.72 63.36L85.2 165H39.66L0.5 10.56H40.76L62.98 122.98L90.48 10.56H131.84L158.24 122.98L180.68 10.56H221.16ZM315.487 40.92C329.567 40.92 340.86 45.6133 349.367 55C357.873 64.24 362.127 77 362.127 93.28V165H324.727V98.34C324.727 90.1267 322.6 83.7467 318.347 79.2C314.093 74.6533 308.373 72.38 301.187 72.38C294 72.38 288.28 74.6533 284.027 79.2C279.773 83.7467 277.647 90.1267 277.647 98.34V165H240.027V2.2H277.647V58.74C281.46 53.3133 286.667 48.9867 293.267 45.76C299.867 42.5333 307.273 40.92 315.487 40.92ZM503.989 101.64C503.989 105.16 503.769 108.827 503.329 112.64H418.189C418.776 120.267 421.196 126.133 425.449 130.24C429.849 134.2 435.202 136.18 441.509 136.18C450.896 136.18 457.422 132.22 461.089 124.3H501.129C499.076 132.367 495.336 139.627 489.909 146.08C484.629 152.533 477.956 157.593 469.889 161.26C461.822 164.927 452.802 166.76 442.829 166.76C430.802 166.76 420.096 164.193 410.709 159.06C401.322 153.927 393.989 146.593 388.709 137.06C383.429 127.527 380.789 116.38 380.789 103.62C380.789 90.86 383.356 79.7133 388.489 70.18C393.769 60.6467 401.102 53.3133 410.489 48.18C419.876 43.0467 430.656 40.48 442.829 40.48C454.709 40.48 465.269 42.9733 474.509 47.96C483.749 52.9467 490.936 60.06 496.069 69.3C501.349 78.54 503.989 89.32 503.989 101.64ZM465.489 91.74C465.489 85.2867 463.289 80.1533 458.889 76.34C454.489 72.5267 448.989 70.62 442.389 70.62C436.082 70.62 430.729 72.4533 426.329 76.12C422.076 79.7867 419.436 84.9933 418.409 91.74H465.489ZM561.455 62.7C565.855 55.9533 571.355 50.6733 577.955 46.86C584.555 42.9 591.889 40.92 599.955 40.92V80.74H589.615C580.229 80.74 573.189 82.7933 568.495 86.9C563.802 90.86 561.455 97.9 561.455 108.02V165H523.835V42.24H561.455V62.7ZM733.657 101.64C733.657 105.16 733.437 108.827 732.997 112.64H647.857C648.444 120.267 650.864 126.133 655.117 130.24C659.517 134.2 664.87 136.18 671.177 136.18C680.564 136.18 687.09 132.22 690.757 124.3H730.797C728.744 132.367 725.004 139.627 719.577 146.08C714.297 152.533 707.624 157.593 699.557 161.26C691.49 164.927 682.47 166.76 672.497 166.76C660.47 166.76 649.764 164.193 640.377 159.06C630.99 153.927 623.657 146.593 618.377 137.06C613.097 127.527 610.457 116.38 610.457 103.62C610.457 90.86 613.024 79.7133 618.157 70.18C623.437 60.6467 630.77 53.3133 640.157 48.18C649.544 43.0467 660.324 40.48 672.497 40.48C684.377 40.48 694.937 42.9733 704.177 47.96C713.417 52.9467 720.604 60.06 725.737 69.3C731.017 78.54 733.657 89.32 733.657 101.64ZM695.157 91.74C695.157 85.2867 692.957 80.1533 688.557 76.34C684.157 72.5267 678.657 70.62 672.057 70.62C665.75 70.62 660.397 72.4533 655.997 76.12C651.744 79.7867 649.104 84.9933 648.077 91.74H695.157ZM972.687 85.8C981.634 87.7067 988.82 92.18 994.247 99.22C999.674 106.113 1002.39 114.033 1002.39 122.98C1002.39 135.887 997.84 146.153 988.747 153.78C979.8 161.26 967.26 165 951.127 165H879.187V10.56H948.707C964.4 10.56 976.647 14.1533 985.447 21.34C994.394 28.5267 998.867 38.28 998.867 50.6C998.867 59.6933 996.447 67.2467 991.607 73.26C986.914 79.2733 980.607 83.4533 972.687 85.8ZM916.807 73.04H941.447C947.607 73.04 952.3 71.72 955.527 69.08C958.9 66.2933 960.587 62.26 960.587 56.98C960.587 51.7 958.9 47.6667 955.527 44.88C952.3 42.0933 947.607 40.7 941.447 40.7H916.807V73.04ZM944.527 134.64C950.834 134.64 955.674 133.247 959.047 130.46C962.567 127.527 964.327 123.347 964.327 117.92C964.327 112.493 962.494 108.24 958.827 105.16C955.307 102.08 950.394 100.54 944.087 100.54H916.807V134.64H944.527ZM1139.93 101.64C1139.93 105.16 1139.71 108.827 1139.27 112.64H1054.13C1054.71 120.267 1057.13 126.133 1061.39 130.24C1065.79 134.2 1071.14 136.18 1077.45 136.18C1086.83 136.18 1093.36 132.22 1097.03 124.3H1137.07C1135.01 132.367 1131.27 139.627 1125.85 146.08C1120.57 152.533 1113.89 157.593 1105.83 161.26C1097.76 164.927 1088.74 166.76 1078.77 166.76C1066.74 166.76 1056.03 164.193 1046.65 159.06C1037.26 153.927 1029.93 146.593 1024.65 137.06C1019.37 127.527 1016.73 116.38 1016.73 103.62C1016.73 90.86 1019.29 79.7133 1024.43 70.18C1029.71 60.6467 1037.04 53.3133 1046.43 48.18C1055.81 43.0467 1066.59 40.48 1078.77 40.48C1090.65 40.48 1101.21 42.9733 1110.45 47.96C1119.69 52.9467 1126.87 60.06 1132.01 69.3C1137.29 78.54 1139.93 89.32 1139.93 101.64ZM1101.43 91.74C1101.43 85.2867 1099.23 80.1533 1094.83 76.34C1090.43 72.5267 1084.93 70.62 1078.33 70.62C1072.02 70.62 1066.67 72.4533 1062.27 76.12C1058.01 79.7867 1055.37 84.9933 1054.35 91.74H1101.43Z" fill="white"/>
<path d="M748.443 134.86C753.43 130.9 755.703 129.067 755.263 129.36C769.637 117.48 780.93 107.727 789.143 100.1C797.503 92.4733 804.543 84.48 810.263 76.12C815.983 67.76 818.843 59.62 818.843 51.7C818.843 45.6867 817.45 40.9933 814.663 37.62C811.877 34.2467 807.697 32.56 802.123 32.56C796.55 32.56 792.15 34.6867 788.923 38.94C785.843 43.0467 784.303 48.9133 784.303 56.54H748.003C748.297 44.0733 750.937 33.66 755.923 25.3C761.057 16.94 767.73 10.78 775.943 6.81999C784.303 2.85999 793.543 0.879989 803.663 0.879989C821.117 0.879989 834.243 5.35332 843.043 14.3C851.99 23.2467 856.463 34.9067 856.463 49.28C856.463 64.9733 851.11 79.5667 840.403 93.06C829.697 106.407 816.057 119.46 799.483 132.22H858.883V162.8H748.443V134.86Z" fill="#AC6AFF"/>
</svg>
