<svg width="21" height="23" viewBox="0 0 21 23" fill="none" xmlns="http://www.w3.org/2000/svg">
<path d="M2.58333 22.1111C2.16111 22.1111 1.79167 21.9528 1.475 21.6361C1.15833 21.3194 1 20.95 1 20.5278V4.16667C1 3.74444 1.15833 3.375 1.475 3.05833C1.79167 2.74167 2.16111 2.58333 2.58333 2.58333H3.50694C3.94417 2.58333 4.29861 2.22889 4.29861 1.79167V1.79167C4.29861 1.35444 4.65305 1 5.09028 1H5.22222C5.65945 1 6.01389 1.35444 6.01389 1.79167V1.79167C6.01389 2.22889 6.36833 2.58333 6.80556 2.58333H14.1944C14.6317 2.58333 14.9861 2.22889 14.9861 1.79167V1.79167C14.9861 1.35444 15.3406 1 15.7778 1H15.9097C16.3469 1 16.7014 1.35444 16.7014 1.79167V1.79167C16.7014 2.22889 17.0558 2.58333 17.4931 2.58333H18.4167C18.8389 2.58333 19.2083 2.74167 19.525 3.05833C19.8417 3.375 20 3.74444 20 4.16667V20.5278C20 20.95 19.8417 21.3194 19.525 21.6361C19.2083 21.9528 18.8389 22.1111 18.4167 22.1111H2.58333ZM2.58333 19.5278C2.58333 20.0801 3.03105 20.5278 3.58333 20.5278H17.4167C17.969 20.5278 18.4167 20.0801 18.4167 19.5278V10.1806C18.4167 9.62827 17.969 9.18056 17.4167 9.18056H3.58333C3.03105 9.18056 2.58333 9.62827 2.58333 10.1806V19.5278ZM2.58333 6.59722C2.58333 7.14951 3.03105 7.59722 3.58333 7.59722H17.4167C17.969 7.59722 18.4167 7.14951 18.4167 6.59722V5.16667C18.4167 4.61438 17.969 4.16667 17.4167 4.16667H3.58333C3.03105 4.16667 2.58333 4.61438 2.58333 5.16667V6.59722Z" fill="#9E69F5" stroke="#9E69F5" stroke-width="0.5"/>
</svg>
