<svg fill="none" xmlns="http://www.w3.org/2000/svg">
<path d="M9.6 11.4813C10.1196 11.4813 10.563 11.2976 10.9303 10.9303C11.2976 10.563 11.4813 10.1196 11.4813 9.6C11.4813 9.08042 11.2976 8.63698 10.9303 8.26969C10.563 7.9024 10.1196 7.71875 9.6 7.71875C9.08042 7.71875 8.63698 7.9024 8.26969 8.26969C7.9024 8.63698 7.71875 9.08042 7.71875 9.6C7.71875 10.1196 7.9024 10.563 8.26969 10.9303C8.63698 11.2976 9.08042 11.4813 9.6 11.4813ZM8.96084 19.773C9.31946 20.1171 9.88356 20.1203 10.2458 19.78C12.3035 17.8466 13.8486 16.0792 14.8809 14.4778C16.0186 12.713 16.5875 11.1588 16.5875 9.815C16.5875 7.70083 15.9111 5.97188 14.5584 4.62813C13.2057 3.28438 11.5529 2.6125 9.6 2.6125C7.64708 2.6125 5.99427 3.28438 4.64156 4.62813C3.28885 5.97188 2.6125 7.70083 2.6125 9.815C2.6125 11.1588 3.19479 12.713 4.35938 14.4778C5.41488 16.0773 6.9487 17.8424 8.96084 19.773ZM10.2161 21.9687C9.86321 22.2772 9.33679 22.2772 8.98392 21.9687C6.40675 19.7156 4.45764 17.6128 3.13656 15.6603C1.71219 13.5551 1 11.6067 1 9.815C1 7.1275 1.86448 4.98646 3.59344 3.39188C5.3224 1.79729 7.32458 1 9.6 1C11.8754 1 13.8776 1.79729 15.6066 3.39188C17.3355 4.98646 18.2 7.1275 18.2 9.815C18.2 11.6067 17.4878 13.5551 16.0634 15.6603C14.7424 17.6128 12.7932 19.7156 10.2161 21.9687Z" fill="#9E69F5" stroke="#9E69F5" stroke-width="0.477778"/>
</svg>
