<svg width="24" height="23" viewBox="0 0 24 23" fill="none" xmlns="http://www.w3.org/2000/svg">
<path d="M11.2288 22.0519C11.2288 22.3615 10.9692 22.6094 10.6611 22.5781C9.44771 22.4549 8.30196 22.1355 7.22386 21.6199C5.97909 21.0246 4.89668 20.2444 3.97663 19.2792C3.05658 18.3141 2.33046 17.1911 1.79828 15.9102C1.26609 14.6294 1 13.2673 1 11.8241C1 10.3268 1.28413 8.91964 1.8524 7.60271C2.42066 6.28577 3.19188 5.14022 4.16605 4.16605C5.14022 3.19188 6.28577 2.42066 7.60271 1.8524C8.91964 1.28413 10.3268 1 11.8241 1C14.5121 1 16.8483 1.84789 18.8327 3.54367C20.6516 5.09801 21.8264 7.01612 22.357 9.29798C22.4332 9.62567 22.1775 9.92989 21.841 9.92989H21.2778C21.0203 9.92989 20.8001 9.74797 20.7377 9.49813C20.4025 8.15634 19.7946 6.94725 18.9139 5.87085C18.0407 4.8036 16.9718 3.97551 15.7073 3.38658C15.4964 3.28838 15.2608 3.44637 15.2608 3.67897V3.67897C15.2608 4.31037 15.0443 4.8606 14.6113 5.32964C14.1784 5.79869 13.6462 6.03321 13.0148 6.03321H11.2017C10.9028 6.03321 10.6605 6.27552 10.6605 6.57442V8.38745C10.6605 8.69414 10.5387 8.9467 10.2952 9.14514C10.0517 9.34358 9.77655 9.4428 9.46986 9.4428H7.76507C7.46617 9.4428 7.22386 9.68511 7.22386 9.98401V11.2829C7.22386 11.5818 7.46617 11.8241 7.76507 11.8241H9.65929C9.95819 11.8241 10.2005 12.0664 10.2005 12.3653V14.6654C10.2005 14.9643 9.95819 15.2066 9.65929 15.2066H8.61163C8.46809 15.2066 8.33043 15.1496 8.22894 15.0481L3.54306 10.3623C3.2456 10.0648 2.74281 10.2078 2.69225 10.6255C2.687 10.6688 2.68217 10.712 2.67774 10.7552C2.64166 11.107 2.62362 11.4633 2.62362 11.8241C2.62362 14.2595 3.44444 16.3612 5.0861 18.1292C6.61297 19.7735 8.49097 20.7155 10.7201 20.9554C11.005 20.986 11.2288 21.2213 11.2288 21.5078V22.0519ZM22.2191 21.5349C22.0077 21.7463 21.6651 21.7463 21.4537 21.5349L18.5345 18.6157C18.3474 18.4286 18.0542 18.4075 17.8246 18.539C17.5569 18.6923 17.2751 18.8172 16.9791 18.9139C16.5371 19.0582 16.0816 19.1304 15.6125 19.1304C14.3317 19.1304 13.2448 18.6839 12.3518 17.7909C11.4588 16.8979 11.0123 15.811 11.0123 14.5301C11.0123 13.2493 11.4588 12.1624 12.3518 11.2694C13.2448 10.3764 14.3317 9.92989 15.6125 9.92989C16.8934 9.92989 17.9803 10.3764 18.8733 11.2694C19.7663 12.1624 20.2128 13.2493 20.2128 14.5301C20.2128 14.9992 20.1361 15.4547 19.9828 15.8967C19.877 16.2016 19.7476 16.4958 19.5946 16.7793C19.4737 17.0031 19.5027 17.2828 19.6832 17.462L22.6144 20.3713C22.8271 20.5824 22.8278 20.9262 22.6159 21.1381L22.2191 21.5349ZM15.6125 17.5068C16.4424 17.5068 17.146 17.2181 17.7232 16.6408C18.3005 16.0636 18.5892 15.36 18.5892 14.5301C18.5892 13.7003 18.3005 12.9967 17.7232 12.4194C17.146 11.8421 16.4424 11.5535 15.6125 11.5535C14.7827 11.5535 14.0791 11.8421 13.5018 12.4194C12.9246 12.9967 12.6359 13.7003 12.6359 14.5301C12.6359 15.36 12.9246 16.0636 13.5018 16.6408C14.0791 17.2181 14.7827 17.5068 15.6125 17.5068Z" fill="#9E69F5" stroke="#9E69F5" stroke-width="0.5"/>
</svg>
